<?xml version="1.0" standalone="no"?>
<!DOCTYPE svg PUBLIC "-//W3C//DTD SVG 20010904//EN"
 "http://www.w3.org/TR/2001/REC-SVG-20010904/DTD/svg10.dtd">
<svg version="1.0" xmlns="http://www.w3.org/2000/svg"
 width="512.000000pt" height="512.000000pt" viewBox="0 0 512.000000 512.000000"
 preserveAspectRatio="xMidYMid meet">
<metadata>
Created by potrace 1.14, written by Peter Selinger 2001-2017
</metadata>
<g transform="translate(0.000000,512.000000) scale(0.100000,-0.100000)"
fill="#000000" stroke="none">
<path d="M2379 5116 c-2 -2 -35 -6 -74 -10 -38 -3 -97 -10 -130 -16 -33 -6
-76 -13 -95 -16 -110 -17 -397 -103 -497 -149 -17 -8 -34 -15 -37 -15 -22 0
-284 -142 -382 -206 -478 -314 -807 -732 -1017 -1290 -38 -102 -98 -332 -111
-427 -3 -18 -7 -48 -10 -67 -17 -99 -23 -224 -21 -400 3 -189 10 -269 41 -435
15 -82 58 -255 76 -305 3 -8 18 -51 34 -95 32 -94 115 -279 156 -348 15 -26
28 -50 28 -53 0 -3 8 -17 19 -32 10 -15 44 -66 74 -113 69 -105 193 -261 279
-349 395 -405 863 -653 1423 -754 17 -3 57 -9 90 -12 33 -4 64 -9 69 -12 16
-9 427 -10 501 -1 39 5 93 11 120 15 61 7 259 48 335 69 30 9 62 17 70 20 44
10 218 79 310 121 539 251 953 654 1223 1189 91 180 183 447 212 614 3 19 8
37 10 41 2 3 7 33 10 65 4 33 9 62 10 65 25 43 25 631 0 702 -2 7 -6 31 -9 53
-23 201 -119 500 -236 736 -73 146 -230 394 -293 461 -7 7 -39 44 -72 83 -240
277 -563 514 -897 659 -21 9 -53 23 -70 31 -55 25 -238 83 -346 110 -184 47
-349 66 -578 70 -117 2 -213 2 -215 1z"/>
</g>
</svg>
