<?xml version="1.0" standalone="no"?>
<!DOCTYPE svg PUBLIC "-//W3C//DTD SVG 20010904//EN"
 "http://www.w3.org/TR/2001/REC-SVG-20010904/DTD/svg10.dtd">
<svg version="1.0" xmlns="http://www.w3.org/2000/svg"
 width="96.000000pt" height="96.000000pt" viewBox="0 0 96.000000 96.000000"
 preserveAspectRatio="xMidYMid meet">
<metadata>
Created by potrace 1.14, written by Peter Selinger 2001-2017
</metadata>
<g transform="translate(0.000000,96.000000) scale(0.100000,-0.100000)"
fill="#000000" stroke="none">
<path d="M43 948 c-12 -6 -26 -22 -31 -37 -8 -20 -11 -825 -3 -864 0 -4 10
-16 21 -27 19 -19 33 -20 453 -20 422 0 434 1 455 20 22 21 22 21 22 460 l0
439 -26 20 c-26 21 -36 21 -448 20 -273 0 -429 -4 -443 -11z"/>
</g>
</svg>
